<svg viewBox="0 0 42 42" fill="none" xmlns="http://www.w3.org/2000/svg">
<circle cx="21" cy="21" r="20" fill="#A4A4A4" fill-opacity="0.15" stroke="#EEE5D8"/>
<path d="M29.5715 25.2856H18.1429C17.764 25.2856 17.4007 25.1351 17.1328 24.8672C16.8649 24.5993 16.7144 24.236 16.7144 23.8571V12.4285C16.7144 12.0496 16.8649 11.6863 17.1328 11.4183C17.4007 11.1504 17.764 10.9999 18.1429 10.9999L29.5715 10.9999C29.9504 10.9999 30.3137 11.1504 30.5817 11.4183C30.8496 11.6863 31.0001 12.0496 31.0001 12.4285V23.8571C31.0001 24.236 30.8496 24.5993 30.5817 24.8672C30.3137 25.1351 29.9504 25.2856 29.5715 25.2856ZM18.1429 12.4285V23.8571H29.5715V12.4285L18.1429 12.4285Z" fill="#EEE5D8"/>
<path d="M14.5714 18.1429H12.4286L12.4286 29.5714H23.8571V27.4286C23.8571 27.2391 23.9324 27.0574 24.0664 26.9235C24.2003 26.7895 24.382 26.7143 24.5714 26.7143C24.7609 26.7143 24.9426 26.7895 25.0765 26.9235C25.2105 27.0574 25.2857 27.2391 25.2857 27.4286V29.5714C25.2857 29.9503 25.1352 30.3137 24.8673 30.5816C24.5994 30.8495 24.236 31 23.8571 31H12.4286C12.0497 31 11.6863 30.8495 11.4184 30.5816C11.1505 30.3137 11 29.9503 11 29.5714L11 18.1429C11 17.764 11.1505 17.4006 11.4184 17.1327C11.6863 16.8648 12.0497 16.7143 12.4286 16.7143H14.5714C14.7609 16.7143 14.9426 16.7895 15.0765 16.9235C15.2105 17.0574 15.2857 17.2391 15.2857 17.4286C15.2857 17.618 15.2105 17.7997 15.0765 17.9336C14.9426 18.0676 14.7609 18.1429 14.5714 18.1429Z" fill="#EEE5D8"/>
</svg>
