<svg viewBox="0 0 42 42" fill="none" xmlns="http://www.w3.org/2000/svg">
<circle cx="21" cy="21" r="20" fill="#A4A4A4" fill-opacity="0.15" stroke="#EEE5D8"/>
<path d="M29.4286 12H13.4286C12.5193 12 11.6472 12.3612 11.0042 13.0042C10.3612 13.6472 10 14.5193 10 15.4286V26.8571C10 27.7665 10.3612 28.6385 11.0042 29.2815C11.6472 29.9245 12.5193 30.2857 13.4286 30.2857H29.4286C30.3379 30.2857 31.21 29.9245 31.8529 29.2815C32.4959 28.6385 32.8571 27.7665 32.8571 26.8571V15.4286C32.8571 14.5193 32.4959 13.6472 31.8529 13.0042C31.21 12.3612 30.3379 12 29.4286 12ZM28.6629 14.2857L21.4286 19.7143L14.1943 14.2857H28.6629ZM29.4286 28H13.4286C13.1255 28 12.8348 27.8796 12.6204 27.6653C12.4061 27.4509 12.2857 27.1602 12.2857 26.8571V15.7143L20.7429 22.0571C20.9407 22.2055 21.1813 22.2857 21.4286 22.2857C21.6759 22.2857 21.9165 22.2055 22.1143 22.0571L30.5714 15.7143V26.8571C30.5714 27.1602 30.451 27.4509 30.2367 27.6653C30.0224 27.8796 29.7317 28 29.4286 28Z" fill="#EEE5D8"/>
</svg>
