<svg viewBox="0 0 24 20" fill="none" xmlns="http://www.w3.org/2000/svg">
<g id="Layer 5">
<path id="email" d="M19.9999 0.856934H3.99986C3.09055 0.856934 2.21848 1.21816 1.57549 1.86114C0.932513 2.50412 0.571289 3.37619 0.571289 4.2855V15.7141C0.571289 16.6234 0.932513 17.4955 1.57549 18.1384C2.21848 18.7814 3.09055 19.1426 3.99986 19.1426H19.9999C20.9092 19.1426 21.7812 18.7814 22.4242 18.1384C23.0672 17.4955 23.4284 16.6234 23.4284 15.7141V4.2855C23.4284 3.37619 23.0672 2.50412 22.4242 1.86114C21.7812 1.21816 20.9092 0.856934 19.9999 0.856934ZM19.2341 3.14265L11.9999 8.57122L4.76557 3.14265H19.2341ZM19.9999 16.8569H3.99986C3.69676 16.8569 3.40607 16.7365 3.19174 16.5222C2.97741 16.3079 2.857 16.0172 2.857 15.7141V4.57122L11.3141 10.9141C11.512 11.0624 11.7526 11.1426 11.9999 11.1426C12.2471 11.1426 12.4878 11.0624 12.6856 10.9141L21.1427 4.57122V15.7141C21.1427 16.0172 21.0223 16.3079 20.808 16.5222C20.5937 16.7365 20.303 16.8569 19.9999 16.8569Z" fill="#EEE5D8"/>
</g>
</svg>
