<svg viewBox="0 0 42 42" fill="none" xmlns="http://www.w3.org/2000/svg">
<circle cx="21" cy="21" r="20" fill="#A4A4A4" fill-opacity="0.15" stroke="#EEE5D8"/>
<path d="M26.34 14.46C26.1027 14.46 25.8707 14.5304 25.6733 14.6622C25.476 14.7941 25.3222 14.9815 25.2313 15.2008C25.1405 15.4201 25.1168 15.6613 25.1631 15.8941C25.2094 16.1269 25.3236 16.3407 25.4915 16.5085C25.6593 16.6764 25.8731 16.7906 26.1059 16.8369C26.3387 16.8832 26.5799 16.8595 26.7992 16.7687C27.0185 16.6778 27.2059 16.524 27.3378 16.3267C27.4696 16.1293 27.54 15.8973 27.54 15.66C27.54 15.3417 27.4136 15.0365 27.1885 14.8115C26.9635 14.5864 26.6583 14.46 26.34 14.46ZM30.94 16.88C30.9206 16.0503 30.7652 15.2294 30.48 14.45C30.2257 13.7831 29.83 13.1793 29.32 12.68C28.8248 12.1674 28.2196 11.7742 27.55 11.53C26.7727 11.2362 25.9508 11.0772 25.12 11.06C24.06 11 23.72 11 21 11C18.28 11 17.94 11 16.88 11.06C16.0492 11.0772 15.2273 11.2362 14.45 11.53C13.7817 11.7766 13.1769 12.1696 12.68 12.68C12.1674 13.1752 11.7742 13.7804 11.53 14.45C11.2362 15.2273 11.0772 16.0492 11.06 16.88C11 17.94 11 18.28 11 21C11 23.72 11 24.06 11.06 25.12C11.0772 25.9508 11.2362 26.7727 11.53 27.55C11.7742 28.2196 12.1674 28.8248 12.68 29.32C13.1769 29.8304 13.7817 30.2234 14.45 30.47C15.2273 30.7638 16.0492 30.9228 16.88 30.94C17.94 31 18.28 31 21 31C23.72 31 24.06 31 25.12 30.94C25.9508 30.9228 26.7727 30.7638 27.55 30.47C28.2196 30.2258 28.8248 29.8326 29.32 29.32C29.8322 28.8226 30.2283 28.2182 30.48 27.55C30.7652 26.7706 30.9206 25.9497 30.94 25.12C30.94 24.06 31 23.72 31 21C31 18.28 31 17.94 30.94 16.88ZM29.14 25C29.1327 25.6348 29.0178 26.2637 28.8 26.86C28.6403 27.2952 28.3839 27.6884 28.05 28.01C27.7256 28.3405 27.3332 28.5964 26.9 28.76C26.3037 28.9778 25.6748 29.0927 25.04 29.1C24.04 29.15 23.67 29.16 21.04 29.16C18.41 29.16 18.04 29.16 17.04 29.1C16.3809 29.1123 15.7246 29.0109 15.1 28.8C14.6858 28.6281 14.3114 28.3728 14 28.05C13.6681 27.7287 13.4148 27.3352 13.26 26.9C13.0159 26.2952 12.8804 25.6519 12.86 25C12.86 24 12.8 23.63 12.8 21C12.8 18.37 12.8 18 12.86 17C12.8645 16.3511 12.983 15.7079 13.21 15.1C13.386 14.6779 13.6563 14.3017 14 14C14.3038 13.6562 14.6793 13.3831 15.1 13.2C15.7096 12.98 16.352 12.8651 17 12.86C18 12.86 18.37 12.8 21 12.8C23.63 12.8 24 12.8 25 12.86C25.6348 12.8673 26.2637 12.9822 26.86 13.2C27.3144 13.3687 27.7223 13.6428 28.05 14C28.3777 14.3072 28.6338 14.6827 28.8 15.1C29.0223 15.7089 29.1373 16.3518 29.14 17C29.19 18 29.2 18.37 29.2 21C29.2 23.63 29.19 24 29.14 25ZM21 15.87C19.9858 15.872 18.995 16.1745 18.1527 16.7394C17.3103 17.3043 16.6544 18.1062 16.2676 19.0438C15.8809 19.9813 15.7807 21.0125 15.9798 22.0069C16.1789 23.0014 16.6682 23.9145 17.3861 24.631C18.1039 25.3474 19.018 25.835 20.0129 26.0321C21.0077 26.2293 22.0387 26.1271 22.9755 25.7385C23.9123 25.35 24.7129 24.6924 25.2761 23.849C25.8394 23.0056 26.14 22.0142 26.14 21C26.1413 20.3251 26.0092 19.6566 25.7512 19.033C25.4933 18.4093 25.1146 17.8428 24.6369 17.3661C24.1592 16.8893 23.5919 16.5117 22.9678 16.2549C22.3436 15.9982 21.6749 15.8674 21 15.87ZM21 24.33C20.3414 24.33 19.6976 24.1347 19.15 23.7688C18.6023 23.4029 18.1755 22.8828 17.9235 22.2743C17.6714 21.6659 17.6055 20.9963 17.734 20.3503C17.8625 19.7044 18.1796 19.111 18.6453 18.6453C19.111 18.1796 19.7044 17.8625 20.3503 17.734C20.9963 17.6055 21.6659 17.6714 22.2743 17.9235C22.8828 18.1755 23.4029 18.6023 23.7688 19.15C24.1347 19.6976 24.33 20.3414 24.33 21C24.33 21.4373 24.2439 21.8703 24.0765 22.2743C23.9092 22.6784 23.6639 23.0454 23.3547 23.3547C23.0454 23.6639 22.6784 23.9092 22.2743 24.0765C21.8703 24.2439 21.4373 24.33 21 24.33Z" fill="#EEE5D8"/>
</svg>
