<svg viewBox="0 0 42 42" fill="none" xmlns="http://www.w3.org/2000/svg">
<circle cx="21" cy="21" r="20" fill="#A4A4A4" fill-opacity="0.15" stroke="#EEE5D8"/>
<path d="M30.1652 24.7786L28.3794 22.9928C27.8471 22.4647 27.1285 22.167 26.3787 22.1638C25.6289 22.1606 24.9078 22.4522 24.371 22.9757C24.0846 23.2638 23.7067 23.443 23.3024 23.4826C22.8981 23.5221 22.4926 23.4196 22.1558 23.1925C20.8263 22.3052 19.6842 21.1653 18.7943 19.8375C18.5712 19.4969 18.4724 19.0898 18.5143 18.6848C18.5563 18.2798 18.7366 17.9017 19.0249 17.6141C19.5436 17.0768 19.8315 16.3577 19.8268 15.6109C19.8221 14.864 19.5252 14.1486 18.9997 13.6179L17.2139 11.832C16.6792 11.2992 15.9552 11 15.2003 11C14.4455 11 13.7215 11.2992 13.1868 11.832L12.673 12.3467C9.99422 15.0254 10.1947 20.6574 15.7682 26.2276C19.1288 29.5891 22.5113 30.9966 25.2542 30.9966C26.0616 31.0235 26.8663 30.8894 27.6214 30.6022C28.3764 30.315 29.0668 29.8803 29.6522 29.3236L30.1669 28.809C30.7006 28.2741 31.0003 27.5491 31 26.7935C30.9997 26.0378 30.6995 25.3131 30.1652 24.7786ZM29.0174 27.6611L28.5028 28.1758C26.3922 30.2863 21.7337 29.9008 16.9143 25.0806C12.095 20.2604 11.7086 15.5985 13.8192 13.488L14.3297 12.9741C14.5596 12.7451 14.8709 12.6165 15.1955 12.6165C15.52 12.6165 15.8313 12.7451 16.0612 12.9741L17.847 14.76C18.0727 14.9868 18.2009 15.2929 18.204 15.6129C18.2072 15.9329 18.0852 16.2415 17.8641 16.4728C17.3156 17.0248 16.9734 17.7486 16.8949 18.5228C16.8165 19.297 17.0064 20.0747 17.433 20.7255C18.4441 22.2386 19.7443 23.5368 21.2588 24.5456C21.9077 24.9723 22.6833 25.1634 23.4561 25.087C24.229 25.0106 24.9522 24.6714 25.505 24.126C25.7359 23.9022 26.0453 23.7779 26.3668 23.7799C26.6883 23.7819 26.9962 23.9099 27.2243 24.1365L29.0101 25.9224C29.1252 26.0358 29.2167 26.1709 29.2794 26.3198C29.3421 26.4688 29.3748 26.6286 29.3754 26.7902C29.3761 26.9518 29.3448 27.112 29.2834 27.2614C29.222 27.4109 29.1316 27.5467 29.0174 27.6611Z" fill="#EEE5D8"/>
</svg>
