<svg viewBox="0 0 42 42" fill="none" xmlns="http://www.w3.org/2000/svg">
<circle cx="21" cy="21" r="20" fill="#A4A4A4" fill-opacity="0.15" stroke="#EEE5D8"/>
<path d="M25.6687 23.01C25.4678 22.9101 24.1617 22.3109 23.9607 22.211C23.7598 22.1111 23.5588 22.1111 23.3579 22.3109C23.157 22.5106 22.7551 23.1099 22.5541 23.3096C22.4537 23.5094 22.2527 23.5094 22.0518 23.4095C21.3485 23.1099 20.6452 22.7104 20.0424 22.211C19.54 21.7116 19.0377 21.1124 18.6358 20.5131C18.5353 20.3134 18.6358 20.1136 18.7362 20.0137C18.8367 19.9139 18.9372 19.7141 19.1381 19.6142C19.2386 19.5144 19.3391 19.3146 19.3391 19.2147C19.4395 19.1149 19.4395 18.9151 19.3391 18.8152C19.2386 18.7154 18.7362 17.5169 18.5353 17.0175C18.4348 16.3184 18.2339 16.3184 18.033 16.3184H17.5306C17.3297 16.3184 17.0282 16.5181 16.9278 16.618C16.325 17.2172 16.0235 17.9164 16.0235 18.7154C16.124 19.6142 16.4254 20.5131 17.0282 21.3121C18.1334 22.9101 19.54 24.2085 21.248 25.0075C21.7504 25.2072 22.1523 25.407 22.6546 25.5069C23.157 25.7066 23.6593 25.7066 24.2621 25.6067C24.9654 25.5069 25.5683 25.0075 25.9701 24.4082C26.1711 24.0087 26.1711 23.6092 26.0706 23.2097L25.6687 23.01ZM28.1805 13.9213C24.2621 10.0262 17.9325 10.0262 14.0141 13.9213C10.7991 17.1174 10.1962 22.0112 12.4066 25.9064L11 31L16.325 29.6017C17.832 30.4007 19.4395 30.8002 21.0471 30.8002C26.573 30.8002 30.9937 26.4057 30.9937 20.9126C31.0942 18.3159 29.989 15.819 28.1805 13.9213ZM25.4678 27.9039C24.1617 28.7029 22.6546 29.2022 21.0471 29.2022C19.54 29.2022 18.1334 28.8027 16.8273 28.1036L16.5259 27.9039L13.4113 28.7029L14.2151 25.7066L14.0141 25.407C11.6028 21.412 12.8085 16.4182 16.7268 13.9213C20.6452 11.4245 25.6687 12.7228 28.08 16.5181C30.4913 20.4132 29.3862 25.5069 25.4678 27.9039Z" fill="#EEE5D8"/>
</svg>
